<?xml version="1.0" standalone="no"?>
<!DOCTYPE svg PUBLIC "-//W3C//DTD SVG 20010904//EN"
 "http://www.w3.org/TR/2001/REC-SVG-20010904/DTD/svg10.dtd">
<svg version="1.0" xmlns="http://www.w3.org/2000/svg"
 width="400.000000pt" height="400.000000pt" viewBox="0 0 400.000000 400.000000"
 preserveAspectRatio="xMidYMid meet">
<metadata>
Created by potrace 1.14, written by Peter Selinger 2001-2017
</metadata>
<g transform="translate(0.000000,400.000000) scale(0.100000,-0.100000)"
fill="#000000" stroke="none">
<path d="M1865 3913 c-176 -16 -380 -59 -520 -111 -190 -71 -422 -200 -531
-297 -7 -5 -31 -26 -55 -45 -132 -105 -311 -313 -411 -480 -114 -190 -224
-484 -244 -654 -3 -22 -7 -43 -9 -46 -8 -13 -19 -181 -19 -290 0 -167 12 -275
45 -424 164 -740 767 -1326 1514 -1472 124 -24 195 -29 390 -29 234 0 393 27
605 100 362 126 683 358 911 660 143 190 261 430 323 655 47 172 61 293 61
510 0 198 -7 265 -41 417 -180 802 -839 1396 -1664 1499 -56 7 -301 12 -355 7z
m385 -119 c411 -63 745 -229 1031 -514 122 -121 206 -225 281 -351 48 -78 138
-262 138 -280 0 -5 7 -23 15 -40 17 -33 79 -269 89 -339 44 -307 16 -602 -85
-893 -25 -74 -22 -72 -94 -54 -71 18 -67 14 -220 218 -60 79 -113 149 -118
154 -25 30 -127 171 -127 177 0 3 21 14 48 22 61 21 137 79 183 140 53 70 77
150 73 247 -5 164 -88 261 -268 313 -72 21 -135 27 -298 28 l-128 0 -1 27 c-3
103 1 146 18 161 10 10 56 32 103 50 96 37 107 46 104 87 -1 15 -3 36 -3 45
-1 16 -28 17 -346 18 -190 0 -345 -3 -346 -7 -6 -49 -7 -90 -1 -98 4 -6 51
-28 104 -49 53 -21 100 -46 104 -55 13 -27 13 -681 0 -682 -52 -4 -796 0 -803
4 -7 4 -10 129 -10 338 0 309 1 332 18 348 10 9 61 34 113 55 l94 38 -2 52 -2
51 -349 0 -349 0 -1 -49 c0 -56 -5 -52 118 -102 102 -42 109 -51 107 -134 0
-8 0 -114 1 -236 2 -121 -1 -226 -5 -232 -4 -7 -4 -17 0 -24 9 -14 8 -153 -1
-168 -3 -5 -3 -10 2 -10 7 0 7 -75 2 -290 0 -8 1 -62 2 -119 1 -58 -2 -106 -7
-108 -5 -2 -22 21 -38 50 -16 28 -36 62 -45 73 -9 12 -22 30 -29 40 -7 11 -76
109 -153 219 -77 110 -157 225 -177 255 -20 30 -39 57 -42 60 -4 3 -33 44 -66
91 -226 326 -204 299 -248 300 -23 0 -108 0 -189 0 l-149 0 7 27 c9 38 108
235 154 309 73 116 134 192 248 308 237 241 520 405 844 489 160 41 253 52
449 53 90 1 195 -5 250 -13z m-1830 -1298 c14 -6 28 -15 32 -21 9 -12 11
-1086 2 -1109 -3 -8 -29 -23 -57 -32 -29 -9 -58 -21 -65 -27 -7 -5 -14 -8 -16
-6 -21 25 -98 290 -110 379 -3 25 -9 56 -12 70 -10 42 -13 381 -4 440 4 30 11
75 15 100 7 48 53 239 61 252 4 7 99 -21 154 -46z m2374 2 c-5 -7 -3 -8 5 -3
16 9 98 11 107 2 4 -3 14 -2 24 3 10 5 20 7 23 4 3 -3 29 -8 58 -10 29 -3 60
-11 68 -17 8 -7 17 -11 20 -10 13 5 70 -37 93 -68 35 -47 51 -101 50 -175 -1
-121 -72 -220 -187 -259 -45 -15 -159 -20 -250 -12 l-30 3 -3 269 c-2 208 1
270 10 277 18 11 20 10 12 -4z m-2045 -332 c103 -148 141 -202 201 -286 25
-36 73 -103 105 -150 32 -47 62 -86 67 -88 4 -2 8 -9 8 -15 0 -7 11 -25 25
-42 13 -16 83 -113 154 -215 l131 -185 -23 -21 c-13 -11 -59 -33 -103 -49 -43
-15 -84 -32 -90 -37 -9 -6 -11 -56 -5 -100 1 -5 158 -8 349 -8 l348 0 0 50
c-1 27 -5 53 -11 58 -5 5 -50 24 -98 42 -53 20 -94 42 -102 54 -10 17 -13 101
-11 391 l1 370 25 2 c14 0 30 2 35 3 6 1 15 1 20 0 19 -4 85 -4 89 1 3 2 34 2
70 -1 36 -3 66 -2 66 3 0 4 5 5 11 2 14 -10 109 -12 109 -3 0 4 7 5 17 1 18
-7 81 -9 87 -2 2 2 61 2 130 -1 69 -3 126 -1 126 3 0 4 8 3 18 -2 18 -9 19
-32 19 -378 0 -202 -3 -375 -8 -384 -8 -16 -150 -82 -176 -82 -7 0 -13 -4 -13
-9 0 -4 -6 -8 -13 -8 -9 0 -13 -16 -14 -55 l0 -55 348 0 c272 0 349 3 350 13
5 58 1 92 -12 99 -8 4 -51 22 -96 39 -45 17 -90 40 -99 50 -14 16 -16 53 -15
341 1 177 5 326 10 331 4 4 19 4 32 -1 21 -8 92 -22 125 -25 6 0 55 -63 110
-139 54 -76 106 -147 114 -157 8 -11 33 -45 55 -76 86 -121 145 -198 162 -210
24 -17 80 -24 186 -25 l89 0 -47 -87 c-204 -378 -536 -672 -942 -832 -88 -35
-207 -71 -284 -86 -196 -38 -358 -48 -549 -31 -267 23 -572 128 -810 280 -151
97 -348 274 -438 394 -15 21 -32 42 -37 48 -6 6 -28 37 -49 70 -22 32 -47 71
-57 85 -18 28 -79 145 -79 154 0 3 94 5 210 5 116 0 211 3 211 8 6 32 3 64 -6
71 -5 4 -45 20 -88 35 -65 24 -78 32 -84 55 -7 28 -11 964 -4 995 3 14 11 6
35 -34 17 -29 69 -107 115 -174z"/>
</g>
</svg>
